<?xml version="1.0" encoding="UTF-8" standalone="no"?><!DOCTYPE svg PUBLIC "-//W3C//DTD SVG 1.1//EN" "http://www.w3.org/Graphics/SVG/1.1/DTD/svg11.dtd"><svg width="100%" height="100%" viewBox="0 0 512 512" version="1.1" xmlns="http://www.w3.org/2000/svg" xmlns:xlink="http://www.w3.org/1999/xlink" xml:space="preserve" xmlns:serif="http://www.serif.com/" style="fill-rule:evenodd;clip-rule:evenodd;stroke-linejoin:round;stroke-miterlimit:2;"><path d="M431.6,256.08c14.879,-19.577 24.79,-42.473 28.88,-66.72c-5.315,1.975 -10.977,2.846 -16.64,2.56c-4.005,18.208 -11.623,35.428 -22.4,50.64c-15.347,-18.772 -32.704,-35.807 -51.76,-50.8c-3.4,-23.994 -9.492,-47.529 -18.16,-70.16c18.584,-1.774 37.336,0.24 55.12,5.92c2.611,-5.01 6.17,-9.466 10.48,-13.12c-23.033,-8.421 -47.741,-11.246 -72.08,-8.24c-21.76,-47.2 -53.04,-74.16 -86.56,-74.16c-5.59,-0.001 -11.157,0.725 -16.56,2.16c3.912,4.174 6.934,9.101 8.88,14.48c2.54,-0.412 5.107,-0.626 7.68,-0.64c25.92,0 51.04,21.76 69.76,60.24c-23.891,3.885 -47.284,10.377 -69.76,19.36c-22.495,-9.01 -45.917,-15.502 -69.84,-19.36c0.72,-1.52 1.52,-3.04 2.24,-4.48c-4.968,-2.261 -9.43,-5.498 -13.12,-9.52c-2.08,3.84 -4,7.76 -5.92,11.92c-51.68,-4.8 -90.56,8.88 -107.36,37.84c-8.72,13.76 1.76,5.6 11.2,8.96c1.52,0.4 2.16,0.8 2.72,-0.96c12.96,-22.48 44.32,-33.36 86.96,-30.4c-8.621,22.64 -14.686,46.173 -18.08,70.16c-19.056,14.993 -36.413,32.028 -51.76,50.8c-2.08,-3.12 -4.08,-6.24 -5.84,-9.28c-4.555,2.982 -9.674,4.997 -15.04,5.92c3.12,5.52 6.72,11.12 10.72,16.8c-57.04,78.4 -29.12,151.6 67.04,150.88c6.32,0 12.88,-0.32 19.6,-0.96c21.68,47.2 53.04,74.08 86.48,74.08c10.72,-0.96 12.96,1.68 5.52,-8.56c-2.16,-2.24 -1.76,-8.24 -5.52,-7.44c-25.92,0 -51.04,-21.76 -69.76,-60.24c23.891,-3.885 47.284,-10.378 69.76,-19.36c22.495,9.01 45.917,15.502 69.84,19.36c-1.36,2.8 -2.72,5.52 -4.16,8.16c4.814,2.631 9.056,6.194 12.48,10.48c2.96,-5.2 5.76,-10.72 8.32,-16.48c6.8,0.64 13.28,0.96 19.6,0.96c41.92,-0.08 73.28,-13.68 87.92,-38.88c16.72,-28.88 9.12,-69.44 -20.88,-111.92Zm-118,168.32c-3.438,-1.447 -7.131,-2.193 -10.861,-2.193c-15.356,-0 -27.992,12.635 -27.992,27.991c0,10.433 5.834,20.034 15.093,24.842c3.985,2.069 8.409,3.149 12.899,3.149c15.355,0 27.991,-12.636 27.991,-27.991c-0,-11.24 -6.771,-21.437 -17.13,-25.798Zm-235.2,-64.4c-13.04,-22.4 -6.72,-55.04 17.04,-90.56c15.397,18.753 32.778,35.786 51.84,50.8c3.4,23.994 9.492,47.529 18.16,70.16c-42.64,2.96 -74.08,-7.92 -87.04,-30.4Zm360.16,0c-12.96,22.48 -44.32,33.28 -86.96,30.4c8.584,-22.652 14.648,-46.181 18.08,-70.16c19.062,-15.014 36.443,-32.047 51.84,-50.8c23.76,35.52 30.08,68.16 17.04,90.56Zm-256.64,28.64c-7.023,-17.593 -12.38,-35.806 -16,-54.4c10.96,7.84 22.56,15.28 34.56,22.24c11.92,6.88 24.16,13.2 36.4,18.72c-17.856,6.202 -36.257,10.702 -54.96,13.44Zm153.12,-0c-18.708,-2.709 -37.113,-7.21 -54.96,-13.44c12.24,-5.52 24.48,-11.84 36.4,-18.72c12,-6.96 23.6,-14.4 34.56,-22.24c-3.568,18.607 -8.926,36.825 -16,54.4Zm-172.8,-77.12c-5.04,-36.868 -5.04,-74.252 -0,-111.12c29.446,-22.738 61.816,-41.412 96.24,-55.52c34.451,14.087 66.827,32.792 96.24,55.6c5,36.871 5,74.249 0,111.12c-29.446,22.738 -61.816,41.412 -96.24,55.52c-34.466,-14.056 -66.847,-32.763 -96.24,-55.6Zm210.32,-96.48c14.275,12.393 27.346,26.107 39.04,40.96c-11.694,14.853 -24.765,28.567 -39.04,40.96c2.56,-27.247 2.56,-54.673 0,-81.92Zm-228.16,0c-2.56,27.247 -2.56,54.673 0,81.92c-14.258,-12.406 -27.353,-26.09 -39.12,-40.88c11.719,-14.881 24.817,-28.622 39.12,-41.04Zm-77.92,-47.04c-15.241,0.171 -27.687,12.757 -27.687,27.999c0,15.361 12.64,28.001 28.001,28.001c0.002,0 0.004,0 0.006,0c36.72,-1.44 36.24,-55.2 -0.32,-56Zm268.56,-44.64c7.023,17.593 12.38,35.806 16,54.4c-10.96,-7.84 -22.56,-15.28 -34.56,-22.24c-11.92,-6.88 -24.16,-13.2 -36.4,-18.72c17.847,-6.23 36.252,-10.731 54.96,-13.44Zm-153.12,0c18.708,2.709 37.113,7.21 54.96,13.44c-12.24,5.52 -24.48,11.84 -36.4,18.72c-12,6.96 -23.6,14.4 -34.56,22.24c3.568,-18.607 8.926,-36.825 16,-54.4Zm263.6,-3.36c-15.242,0.171 -27.688,12.757 -27.688,28c0,15.243 12.446,27.829 27.688,28c15.242,-0.171 27.688,-12.757 27.688,-28c-0,-15.243 -12.446,-27.829 -27.688,-28Zm-220.08,-79.04c-34.64,-21.68 -63.6,31.52 -26.56,48.88c3.334,1.348 6.896,2.04 10.492,2.04c15.358,0 27.995,-12.637 27.995,-27.995c0,-9.121 -4.458,-17.69 -11.927,-22.925Z" style="fill:url(#_Linear1);fill-rule:nonzero;"/><clipPath id="_clip2"><path d="M431.6,256.08c14.879,-19.577 24.79,-42.473 28.88,-66.72c-5.315,1.975 -10.977,2.846 -16.64,2.56c-4.005,18.208 -11.623,35.428 -22.4,50.64c-15.347,-18.772 -32.704,-35.807 -51.76,-50.8c-3.4,-23.994 -9.492,-47.529 -18.16,-70.16c18.584,-1.774 37.336,0.24 55.12,5.92c2.611,-5.01 6.17,-9.466 10.48,-13.12c-23.033,-8.421 -47.741,-11.246 -72.08,-8.24c-21.76,-47.2 -53.04,-74.16 -86.56,-74.16c-5.59,-0.001 -11.157,0.725 -16.56,2.16c3.912,4.174 6.934,9.101 8.88,14.48c2.54,-0.412 5.107,-0.626 7.68,-0.64c25.92,0 51.04,21.76 69.76,60.24c-23.891,3.885 -47.284,10.377 -69.76,19.36c-22.495,-9.01 -45.917,-15.502 -69.84,-19.36c0.72,-1.52 1.52,-3.04 2.24,-4.48c-4.968,-2.261 -9.43,-5.498 -13.12,-9.52c-2.08,3.84 -4,7.76 -5.92,11.92c-51.68,-4.8 -90.56,8.88 -107.36,37.84c-8.72,13.76 1.76,5.6 11.2,8.96c1.52,0.4 2.16,0.8 2.72,-0.96c12.96,-22.48 44.32,-33.36 86.96,-30.4c-8.621,22.64 -14.686,46.173 -18.08,70.16c-19.056,14.993 -36.413,32.028 -51.76,50.8c-2.08,-3.12 -4.08,-6.24 -5.84,-9.28c-4.555,2.982 -9.674,4.997 -15.04,5.92c3.12,5.52 6.72,11.12 10.72,16.8c-57.04,78.4 -29.12,151.6 67.04,150.88c6.32,0 12.88,-0.32 19.6,-0.96c21.68,47.2 53.04,74.08 86.48,74.08c10.72,-0.96 12.96,1.68 5.52,-8.56c-2.16,-2.24 -1.76,-8.24 -5.52,-7.44c-25.92,0 -51.04,-21.76 -69.76,-60.24c23.891,-3.885 47.284,-10.378 69.76,-19.36c22.495,9.01 45.917,15.502 69.84,19.36c-1.36,2.8 -2.72,5.52 -4.16,8.16c4.814,2.631 9.056,6.194 12.48,10.48c2.96,-5.2 5.76,-10.72 8.32,-16.48c6.8,0.64 13.28,0.96 19.6,0.96c41.92,-0.08 73.28,-13.68 87.92,-38.88c16.72,-28.88 9.12,-69.44 -20.88,-111.92Zm-118,168.32c-3.438,-1.447 -7.131,-2.193 -10.861,-2.193c-15.356,-0 -27.992,12.635 -27.992,27.991c0,10.433 5.834,20.034 15.093,24.842c3.985,2.069 8.409,3.149 12.899,3.149c15.355,0 27.991,-12.636 27.991,-27.991c-0,-11.24 -6.771,-21.437 -17.13,-25.798Zm-235.2,-64.4c-13.04,-22.4 -6.72,-55.04 17.04,-90.56c15.397,18.753 32.778,35.786 51.84,50.8c3.4,23.994 9.492,47.529 18.16,70.16c-42.64,2.96 -74.08,-7.92 -87.04,-30.4Zm360.16,0c-12.96,22.48 -44.32,33.28 -86.96,30.4c8.584,-22.652 14.648,-46.181 18.08,-70.16c19.062,-15.014 36.443,-32.047 51.84,-50.8c23.76,35.52 30.08,68.16 17.04,90.56Zm-256.64,28.64c-7.023,-17.593 -12.38,-35.806 -16,-54.4c10.96,7.84 22.56,15.28 34.56,22.24c11.92,6.88 24.16,13.2 36.4,18.72c-17.856,6.202 -36.257,10.702 -54.96,13.44Zm153.12,-0c-18.708,-2.709 -37.113,-7.21 -54.96,-13.44c12.24,-5.52 24.48,-11.84 36.4,-18.72c12,-6.96 23.6,-14.4 34.56,-22.24c-3.568,18.607 -8.926,36.825 -16,54.4Zm-172.8,-77.12c-5.04,-36.868 -5.04,-74.252 -0,-111.12c29.446,-22.738 61.816,-41.412 96.24,-55.52c34.451,14.087 66.827,32.792 96.24,55.6c5,36.871 5,74.249 0,111.12c-29.446,22.738 -61.816,41.412 -96.24,55.52c-34.466,-14.056 -66.847,-32.763 -96.24,-55.6Zm210.32,-96.48c14.275,12.393 27.346,26.107 39.04,40.96c-11.694,14.853 -24.765,28.567 -39.04,40.96c2.56,-27.247 2.56,-54.673 0,-81.92Zm-228.16,0c-2.56,27.247 -2.56,54.673 0,81.92c-14.258,-12.406 -27.353,-26.09 -39.12,-40.88c11.719,-14.881 24.817,-28.622 39.12,-41.04Zm-77.92,-47.04c-15.241,0.171 -27.687,12.757 -27.687,27.999c0,15.361 12.64,28.001 28.001,28.001c0.002,0 0.004,0 0.006,0c36.72,-1.44 36.24,-55.2 -0.32,-56Zm268.56,-44.64c7.023,17.593 12.38,35.806 16,54.4c-10.96,-7.84 -22.56,-15.28 -34.56,-22.24c-11.92,-6.88 -24.16,-13.2 -36.4,-18.72c17.847,-6.23 36.252,-10.731 54.96,-13.44Zm-153.12,0c18.708,2.709 37.113,7.21 54.96,13.44c-12.24,5.52 -24.48,11.84 -36.4,18.72c-12,6.96 -23.6,14.4 -34.56,22.24c3.568,-18.607 8.926,-36.825 16,-54.4Zm263.6,-3.36c-15.242,0.171 -27.688,12.757 -27.688,28c0,15.243 12.446,27.829 27.688,28c15.242,-0.171 27.688,-12.757 27.688,-28c-0,-15.243 -12.446,-27.829 -27.688,-28Zm-220.08,-79.04c-34.64,-21.68 -63.6,31.52 -26.56,48.88c3.334,1.348 6.896,2.04 10.492,2.04c15.358,0 27.995,-12.637 27.995,-27.995c0,-9.121 -4.458,-17.69 -11.927,-22.925Z" clip-rule="nonzero"/></clipPath><g clip-path="url(#_clip2)"><g><path d="M497.673,143.891c-0,-9.045 -1.928,-17.201 -5.932,-24.023c-3.855,-6.821 -9.639,-12.455 -17.349,-16.904c-64.061,-36.924 -128.27,-73.848 -192.331,-110.772c-17.35,-9.935 -33.958,-9.639 -51.159,0.445c-25.506,14.977 -153.331,88.232 -191.293,110.327c-15.719,9.045 -23.281,22.985 -23.281,41.076l-0,223.026c-0,8.897 1.927,16.756 5.634,23.578c3.856,6.97 9.788,12.901 17.647,17.498c38.11,22.095 165.787,95.201 191.293,110.327c17.201,10.082 33.957,10.526 51.159,0.445c64.061,-37.073 128.27,-73.848 192.331,-110.772c8.007,-4.597 13.79,-10.38 17.646,-17.498c3.707,-6.822 5.635,-14.681 5.635,-23.578l-0,-223.175Z" style="fill:#9a4993;fill-rule:nonzero;"/><path d="M257.593,254.663l-235.927,135.832c3.856,6.97 9.787,12.901 17.646,17.499c38.111,22.094 165.787,95.201 191.293,110.326c17.201,10.084 33.958,10.529 51.159,0.445c64.061,-37.072 128.27,-73.848 192.331,-110.771c8.007,-4.598 13.791,-10.38 17.646,-17.499l-234.148,-135.832Z" style="fill:#6a1577;fill-rule:nonzero;"/><path d="M187.749,294.849c13.791,24.023 39.593,40.187 69.103,40.187c29.806,-0 55.756,-16.312 69.399,-40.632l-68.658,-39.741l-69.844,40.186Z" style="fill:#6a1577;fill-rule:nonzero;"/><path d="M497.673,143.891c0,-9.045 -1.928,-17.201 -5.931,-24.023l-234.149,134.795l234.445,135.833c3.707,-6.822 5.635,-14.681 5.635,-23.578l0,-223.027Z" style="fill:#813084;fill-rule:nonzero;"/></g></g><path d="M257,172.19c45.704,0 82.81,37.106 82.81,82.81c0,45.704 -37.106,82.81 -82.81,82.81c-45.704,-0 -82.809,-37.106 -82.809,-82.81c-0,-45.704 37.105,-82.81 82.809,-82.81Zm-11.321,54.169l0,-15.037l-18.493,-0l-0,15.037l-14.864,-0l-0,18.493l14.864,0l-0,22.296l-14.864,-0l-0,18.493l14.864,0l-0,15.037l18.493,0l0,-15.037l22.469,0l0,15.037l18.494,0l-0,-15.037l15.037,0l-0,-18.493l-15.037,-0l-0,-22.296l15.037,0l-0,-18.493l-15.037,-0l-0,-15.037l-18.494,-0l0,15.037l-22.469,-0Zm0,18.493l0,22.296l22.469,-0l0,-22.296l-22.469,0Z" style="fill:url(#_Linear3);"/><clipPath id="_clip4"><path d="M257,172.19c45.704,0 82.81,37.106 82.81,82.81c0,45.704 -37.106,82.81 -82.81,82.81c-45.704,-0 -82.809,-37.106 -82.809,-82.81c-0,-45.704 37.105,-82.81 82.809,-82.81Zm-11.321,54.169l0,-15.037l-18.493,-0l-0,15.037l-14.864,-0l-0,18.493l14.864,0l-0,22.296l-14.864,-0l-0,18.493l14.864,0l-0,15.037l18.493,0l0,-15.037l22.469,0l0,15.037l18.494,0l-0,-15.037l15.037,0l-0,-18.493l-15.037,-0l-0,-22.296l15.037,0l-0,-18.493l-15.037,-0l-0,-15.037l-18.494,-0l0,15.037l-22.469,-0Zm0,18.493l0,22.296l22.469,-0l0,-22.296l-22.469,0Z"/></clipPath><g clip-path="url(#_clip4)"><g><path d="M497.673,143.891c-0,-9.045 -1.928,-17.201 -5.932,-24.023c-3.855,-6.821 -9.639,-12.455 -17.349,-16.904c-64.061,-36.924 -128.27,-73.848 -192.331,-110.772c-17.35,-9.935 -33.958,-9.639 -51.159,0.445c-25.506,14.977 -153.331,88.232 -191.293,110.327c-15.719,9.045 -23.281,22.985 -23.281,41.076l-0,223.026c-0,8.897 1.927,16.756 5.634,23.578c3.856,6.97 9.788,12.901 17.647,17.498c38.11,22.095 165.787,95.201 191.293,110.327c17.201,10.082 33.957,10.526 51.159,0.445c64.061,-37.073 128.27,-73.848 192.331,-110.772c8.007,-4.597 13.79,-10.38 17.646,-17.498c3.707,-6.822 5.635,-14.681 5.635,-23.578l-0,-223.175Z" style="fill:#9a4993;fill-rule:nonzero;"/><path d="M257.593,254.663l-235.927,135.832c3.856,6.97 9.787,12.901 17.646,17.499c38.111,22.094 165.787,95.201 191.293,110.326c17.201,10.084 33.958,10.529 51.159,0.445c64.061,-37.072 128.27,-73.848 192.331,-110.771c8.007,-4.598 13.791,-10.38 17.646,-17.499l-234.148,-135.832Z" style="fill:#6a1577;fill-rule:nonzero;"/><path d="M187.749,294.849c13.791,24.023 39.593,40.187 69.103,40.187c29.806,-0 55.756,-16.312 69.399,-40.632l-68.658,-39.741l-69.844,40.186Z" style="fill:#6a1577;fill-rule:nonzero;"/><path d="M497.673,143.891c0,-9.045 -1.928,-17.201 -5.931,-24.023l-234.149,134.795l234.445,135.833c3.707,-6.822 5.635,-14.681 5.635,-23.578l0,-223.027Z" style="fill:#813084;fill-rule:nonzero;"/></g></g><defs><linearGradient id="_Linear1" x1="0" y1="0" x2="1" y2="0" gradientUnits="userSpaceOnUse" gradientTransform="matrix(434.408,0,0,434.408,38.8,256)"><stop offset="0" style="stop-color:#7f00ff;stop-opacity:1"/><stop offset="1" style="stop-color:#e100ff;stop-opacity:1"/></linearGradient><linearGradient id="_Linear3" x1="0" y1="0" x2="1" y2="0" gradientUnits="userSpaceOnUse" gradientTransform="matrix(165.617,0,0,160.595,173.193,256)"><stop offset="0" style="stop-color:#7f00ff;stop-opacity:1"/><stop offset="1" style="stop-color:#e100ff;stop-opacity:1"/></linearGradient></defs></svg>